<svg xmlns="http://www.w3.org/2000/svg" xmlns:xlink="http://www.w3.org/1999/xlink" width="337" height="104.064" viewBox="0 0 337 104.064">
  <defs>
    <clipPath id="clip-path">
      <rect id="Rectangle_490" data-name="Rectangle 490" width="337" height="104.064" fill="none"/>
    </clipPath>
  </defs>
  <g id="Group_979" data-name="Group 979" transform="translate(0 0)">
    <g id="Group_978" data-name="Group 978" transform="translate(0 0)" clip-path="url(#clip-path)">
      <path id="Path_545" data-name="Path 545" d="M96.425,76.611c0-18.6,13.446-31.79,32.167-31.79,12.44,0,19.978,5.4,24,10.932l-10.429,9.8a14.719,14.719,0,0,0-12.816-6.534c-9.676,0-16.461,7.036-16.461,17.591s6.785,17.717,16.461,17.717a15.319,15.319,0,0,0,12.816-6.534l10.429,9.675c-4.021,5.654-11.56,11.057-24,11.057-18.721,0-32.167-13.193-32.167-31.915" transform="translate(-9.598 -4.462)" fill="#1a1818"/>
      <path id="Path_546" data-name="Path 546" d="M204.494,104.629V67.688c0-8.419-4.4-11.058-11.309-11.058a17.678,17.678,0,0,0-13.821,7.162v40.837H163.406V20.82h15.958V51.856a28.08,28.08,0,0,1,21.361-9.424c13.319,0,19.727,7.288,19.727,19.1v43.1Z" transform="translate(-16.266 -2.072)" fill="#1a1818"/>
      <path id="Path_547" data-name="Path 547" d="M233.039,76.61c0-17.59,12.94-31.79,31.412-31.79,18.094,0,30.408,13.571,30.408,33.423v3.519H249.75c1,7.665,7.162,14.072,17.465,14.072,5.151,0,12.314-2.262,16.209-6.031l7.037,10.3c-6.032,5.528-15.582,8.418-25.006,8.418-18.47,0-32.416-12.44-32.416-31.916m31.412-19.1c-9.926,0-14.2,7.413-14.952,13.445h29.9c-.376-5.78-4.4-13.445-14.952-13.445" transform="translate(-23.197 -4.461)" fill="#1a1818"/>
      <path id="Path_548" data-name="Path 548" d="M347.719,104.629,331.636,81.258l-7.288,7.791v15.581H308.39V20.82h15.958V70.955L347.342,43.94h19.6l-24,27.517L367.7,104.629Z" transform="translate(-30.698 -2.072)" fill="#1a1818"/>
      <path id="Path_549" data-name="Path 549" d="M38.425,51.694,20.219,107.728H56.635L38.429,51.694Z" transform="translate(-2.013 -5.146)" fill="#4b6a29"/>
      <path id="Path_550" data-name="Path 550" d="M55.564,0,40.44,46.548h0l18.206,56.034L91.981,0Z" transform="translate(-4.025 0)" fill="#04afe3"/>
      <path id="Path_551" data-name="Path 551" d="M0,51.694l18.206,56.034L36.413,51.694Z" transform="translate(0 -5.146)" fill="#80b82c"/>
    </g>
  </g>
</svg>
